<?xml version="1.0" encoding="UTF-8"?>
<svg version="1.1" xmlns="http://www.w3.org/2000/svg" width="512" height="512">
<path d="M0 0 C3.23159371 1.80697893 5.50809979 4.28822624 8 7 C8.86625 7.9075 9.7325 8.815 10.625 9.75 C16.25408686 15.71079033 21.58520561 21.91115646 26.67919922 28.3359375 C27.64063676 29.54724218 28.6063925 30.75512319 29.57470703 31.9609375 C43.77752203 49.67087068 57.15674149 68.11661289 64 90 C64.6077124 89.98428955 65.2154248 89.9685791 65.84155273 89.95239258 C82.51160806 89.5802721 97.38005318 90.57715925 113.25 95.8125 C113.95366699 96.03631348 114.65733398 96.26012695 115.38232422 96.49072266 C120.46010745 98.30183571 122.96225207 100.52727781 126 105 C126.70320446 109.37549441 126.32267751 111.38921757 124.25 115.3125 C120.43993304 119.86341332 116.74902527 120.33636342 111 121.3125 C100.64221513 123.23289817 91.73809797 127.1185879 83 133 C83.65097656 134.11246094 84.30195313 135.22492188 84.97265625 136.37109375 C87.43235527 141.30460928 87.56442639 145.62923157 87.4375 151.0625 C87.44458984 151.92166016 87.45167969 152.78082031 87.45898438 153.66601562 C87.41519994 158.07477176 87.2868878 160.49389752 85.0625 164.41796875 C83.64770414 167.84547607 83.64770414 167.84547607 84.96704102 170.48266602 C86.7054784 173.50761606 88.58965871 176.37239578 90.5625 179.25 C91.25835205 180.31049561 91.9542041 181.37099121 92.67114258 182.46362305 C94.0922477 184.62918626 95.52316822 186.78834038 96.96386719 188.94091797 C99.78638046 193.1814565 102.48779026 197.49323868 105.1875 201.8125 C106.15002539 203.3365798 107.11356465 204.86001977 108.078125 206.3828125 C111.20038374 211.31615077 114.31933626 216.25157265 117.4375 221.1875 C117.92178467 221.95360596 118.40606934 222.71971191 118.9050293 223.5090332 C119.82575977 224.96628256 120.74507985 226.4244242 121.6628418 227.88354492 C122.56585224 229.31283057 123.47637935 230.73739084 124.39379883 232.1574707 C130.3618186 241.47305938 132.33618179 250.51131567 130.6015625 261.53125 C128.81257068 268.87308656 124.61987149 274.15652927 120 280 C118.79087883 281.57994463 117.58179773 283.15992134 116.37475586 284.74145508 C113.83478671 288.06142647 111.26943465 291.36183395 108.70898438 294.66601562 C107.42970145 296.31801831 106.15233 297.97148711 104.875 299.625 C104.12992187 300.58664062 103.38484375 301.54828125 102.6171875 302.5390625 C98.98444852 307.28956732 95.50499024 312.15502587 92 317 C92.55043976 316.99333817 93.10087952 316.98667633 93.66799927 316.97981262 C99.41076806 316.91330478 105.15342695 316.86813545 110.89648438 316.83520508 C113.03813117 316.82014359 115.17974724 316.79969028 117.32128906 316.77368164 C120.40437411 316.73718272 123.48705038 316.72024698 126.5703125 316.70703125 C128.00034103 316.68380547 128.00034103 316.68380547 129.45925903 316.66011047 C136.1814263 316.65841894 140.40044285 317.77180816 145.625 322.25 C151.51744534 329.07283145 152.72832527 333.55103783 152.44921875 342.6171875 C151.54911908 349.39532937 148.16857843 353.38335028 142.98391724 357.65299988 C138.86333772 360.45070787 134.13198773 362.01357814 129.5 363.7734375 C128.36882248 364.21388901 127.23764496 364.65434052 126.07218933 365.10813904 C123.01863399 366.29494212 119.96143001 367.47166477 116.90233994 368.64410782 C113.70275197 369.87341168 110.50841026 371.11618861 107.3137207 372.3581543 C102.83597086 374.09781615 98.35692969 375.83405452 93.87580204 377.56499767 C85.03704807 380.97934017 76.21829306 384.44240646 67.40921021 387.9324646 C64.44708876 389.10578222 61.48380105 390.27613925 58.52055359 391.4466095 C56.27951508 392.33189656 54.03865945 393.217645 51.79785156 394.10351562 C47.39138456 395.8454518 42.98452539 397.58639426 38.57762146 399.32722473 C34.68662694 400.86433043 30.7957643 402.40176974 26.90493774 403.93930054 C25.04622561 404.6737773 23.18748258 405.40817588 21.32870483 406.14248657 C19.57658947 406.83471084 17.82454315 407.52710989 16.0725708 408.21969604 C14.398653 408.88134313 12.72454406 409.5425069 11.05023193 410.20315552 C7.24912563 411.70496376 3.45342365 413.21764039 -0.32983398 414.76391602 C-1.00450211 415.03840073 -1.67917023 415.31288544 -2.37428284 415.59568787 C-4.1584602 416.32318816 -5.94041691 417.05612818 -7.72216797 417.78955078 C-16.7642086 421.12862701 -26.13379327 422.20057548 -35.6875 422.8125 C-36.41541748 422.86575439 -37.14333496 422.91900879 -37.89331055 422.97387695 C-53.24078379 423.69372138 -68.92925353 420.70663162 -84.01268959 418.19579697 C-86.82549001 417.72767369 -89.63950567 417.26753071 -92.4539032 416.80911255 C-98.4078986 415.83789926 -104.36027626 414.85700374 -110.3125 413.875 C-117.26567318 412.7285047 -124.21948184 411.58611579 -131.17479515 410.45267105 C-133.93577583 410.00078107 -136.695586 409.54218313 -139.45539856 409.08322144 C-141.1490059 408.80630133 -142.84266276 408.52968383 -144.53637695 408.25341797 C-145.29330338 408.12564972 -146.0502298 407.99788147 -146.83009338 407.86624146 C-154.48345251 406.63238682 -160.17045665 406.48840851 -167.02734375 410.5 C-167.66112442 410.85513672 -168.29490509 411.21027344 -168.94789124 411.57617188 C-170.95259271 412.70367809 -172.9448771 413.85130867 -174.9375 415 C-176.30196341 415.77219721 -177.66719145 416.54304498 -179.03320312 417.3125 C-182.36451524 419.19284165 -185.68485566 421.09130937 -189 423 C-188.71705078 423.80751709 -188.43410156 424.61503418 -188.14257812 425.44702148 C-187.77583984 426.51509033 -187.40910156 427.58315918 -187.03125 428.68359375 C-186.66580078 429.73861084 -186.30035156 430.79362793 -185.92382812 431.88061523 C-183.37457264 440.48839464 -185.09659491 448.05901027 -189 456 C-192.75787102 462.23571723 -198.19505833 465.6403008 -205 468 C-211.79043258 469.44497383 -217.4222468 469.10984537 -224 467 C-224.20625 467.680625 -224.4125 468.36125 -224.625 469.0625 C-227.73210368 475.70040331 -232.35244998 480.07392733 -239.0234375 483.1171875 C-247.25919782 485.55981458 -256.49472302 485.27988396 -264.13671875 481.20703125 C-268.53093276 478.36046494 -271.91320401 475.26013949 -275 471 C-287.26699775 477.80460881 -299.53321272 484.61079645 -311.77758789 491.45605469 C-313.83937858 492.60859032 -315.90236544 493.75898876 -317.96655273 494.90722656 C-322.99536426 497.71381828 -327.98190299 500.56938407 -332.9140625 503.54296875 C-334.32776123 504.38468628 -334.32776123 504.38468628 -335.77001953 505.2434082 C-337.52843131 506.29433522 -339.2777058 507.36078303 -341.01513672 508.44604492 C-346.16019724 511.50397807 -350.95597912 513.48344889 -357 512 C-359.18010156 510.33806091 -359.92374979 509.45690108 -360.38031673 506.72109318 C-360.38274663 505.82200953 -360.38517653 504.92292589 -360.38768005 503.99659729 C-360.39758469 502.96331299 -360.40748932 501.93002869 -360.41769409 500.86543274 C-360.41319244 499.73236191 -360.4086908 498.59929108 -360.40405273 497.43188477 C-360.41091599 496.23818268 -360.41777924 495.04448059 -360.42485046 493.81460571 C-360.44003139 490.53971397 -360.44160805 487.26517827 -360.43590808 483.99026608 C-360.43282023 481.25661184 -360.4389042 478.52300927 -360.44494683 475.78936237 C-360.45900031 469.34024418 -360.4574242 462.89125843 -360.44604492 456.44213867 C-360.43456436 449.78858349 -360.44863604 443.13543141 -360.4754414 436.48192936 C-360.49759298 430.76972284 -360.504237 425.05764289 -360.49836498 419.34539646 C-360.49499265 415.93360713 -360.49742828 412.52207618 -360.51461601 409.11032295 C-360.5294491 405.30574454 -360.51890406 401.5020597 -360.50170898 397.69750977 C-360.51137695 396.56646317 -360.52104492 395.43541656 -360.53100586 394.27009583 C-360.52117172 393.2339917 -360.51133759 392.19788757 -360.50120544 391.13038635 C-360.50099616 390.23092568 -360.50078688 389.33146502 -360.50057125 388.40474796 C-359.83602421 385.2122591 -358.4766449 384.05687109 -356 382 C-353.86597121 380.72896459 -351.68518365 379.53492442 -349.4765625 378.3984375 C-348.85276703 378.07589996 -348.22897156 377.75336243 -347.58627319 377.42105103 C-346.2719508 376.7435316 -344.95571447 376.06971357 -343.63769531 375.39941406 C-341.63386814 374.37951367 -339.63692779 373.34703721 -337.640625 372.3125 C-332.18037665 369.50632246 -326.889316 366.80977843 -321 365 C-321.433125 363.97261719 -321.86625 362.94523437 -322.3125 361.88671875 C-326.43020893 351.79161159 -329.17423532 343.47157087 -325.375 332.75 C-321.83015612 324.98334553 -317.38050446 320.47698857 -309.57421875 316.94140625 C-302.06441748 314.19502976 -295.63125511 315.07227167 -288 317 C-287.79375 316.319375 -287.5875 315.63875 -287.375 314.9375 C-284.28847512 308.34356048 -279.67623115 303.90452504 -273.0390625 300.88671875 C-265.08586638 298.56618466 -255.97226745 298.60815332 -248.375 302.0625 C-241.95565996 305.8817376 -237.8748437 311.13231783 -235 318 C-235 318.66 -235 319.32 -235 320 C-234.40276123 319.68361572 -233.80552246 319.36723145 -233.19018555 319.04125977 C-180.14559595 291 -180.14559595 291 -168 291 C-172.96352876 283.96833426 -178.65019079 277.71177186 -184.58251953 271.49462891 C-185.9101204 270.09477143 -187.20446807 268.66358707 -188.49609375 267.23046875 C-192.82985659 263.36997174 -198.11274581 262.68676908 -203.7109375 261.7109375 C-204.95488281 261.49179687 -206.19882813 261.27265625 -207.48046875 261.046875 C-208.76566406 260.82515625 -210.05085937 260.6034375 -211.375 260.375 C-212.69668795 260.14364791 -214.01830335 259.91188094 -215.33984375 259.6796875 C-218.55920657 259.11571153 -221.77924488 258.5559599 -225 258 C-225.32685791 258.89130615 -225.65371582 259.7826123 -225.99047852 260.70092773 C-226.42803467 261.87083252 -226.86559082 263.0407373 -227.31640625 264.24609375 C-227.74638916 265.4055249 -228.17637207 266.56495605 -228.61938477 267.75952148 C-231.42519595 274.34511509 -235.78054894 278.50155878 -242 282 C-249.18932023 284.83493762 -258.59654901 285.7488804 -265.9375 282.8125 C-271.58514757 279.4700147 -276.12500056 276.42499922 -280 271 C-281.01707031 271.34224609 -281.01707031 271.34224609 -282.0546875 271.69140625 C-291.36789489 274.56792321 -299.04251747 274.65053026 -307.8984375 270.28515625 C-314.64670001 266.15843066 -318.70110082 260.52481206 -321 253 C-321.93703026 248.403387 -322.33579526 244.53762511 -321 240 C-322.38445312 239.85304687 -322.38445312 239.85304687 -323.796875 239.703125 C-331.86203716 238.77865977 -339.83782694 237.5877107 -347.8125 236.0625 C-349.1104248 235.82611816 -349.1104248 235.82611816 -350.43457031 235.58496094 C-351.24635742 235.42415039 -352.05814453 235.26333984 -352.89453125 235.09765625 C-353.61487549 234.95851807 -354.33521973 234.81937988 -355.07739258 234.67602539 C-357.4490069 233.84212062 -358.42357273 232.95524521 -360 231 C-360.38311005 228.90850163 -360.38311005 228.90850163 -360.39440918 226.4521637 C-360.40575897 225.51984924 -360.41710876 224.58753479 -360.42880249 223.62696838 C-360.42587189 222.60610641 -360.42294128 221.58524445 -360.41992188 220.53344727 C-360.42839142 219.45678802 -360.43686096 218.38012878 -360.44558716 217.27084351 C-360.46903618 213.70257845 -360.46997741 210.1347426 -360.46875 206.56640625 C-360.47584675 204.09162725 -360.48354502 201.61684992 -360.49182129 199.14207458 C-360.50528428 193.95103381 -360.50682663 188.76014517 -360.50097656 183.5690918 C-360.49507865 176.90932814 -360.52566756 170.25055896 -360.56609344 163.59089756 C-360.59191403 158.47885693 -360.59485295 153.36699302 -360.59120178 148.25489616 C-360.59289829 145.79923611 -360.60259145 143.34356834 -360.62034607 140.88797188 C-360.64242336 137.45679775 -360.63288959 134.02711527 -360.61523438 130.59594727 C-360.62849762 129.57710953 -360.64176086 128.55827179 -360.65542603 127.50856018 C-360.57356678 120.67916024 -360.57356678 120.67916024 -357.74673462 117.33190918 C-354.83235988 115.91871024 -353.59147786 115.61065218 -350.43701172 116.09350586 C-349.5644574 116.22183807 -348.69190308 116.35017029 -347.79290771 116.48239136 C-342.84167376 117.40000187 -337.92182329 118.40346549 -333.0078125 119.50390625 C-331.89945038 119.7466478 -330.79108826 119.98938934 -329.6491394 120.23948669 C-326.13989162 121.00847945 -322.63232377 121.78478279 -319.125 122.5625 C-315.59614196 123.34324421 -312.06694697 124.12228273 -308.53659058 124.89622498 C-306.34763754 125.37622241 -304.1595477 125.8601774 -301.97244263 126.348526 C-300.98396332 126.56552658 -299.99548401 126.78252716 -298.97705078 127.00610352 C-298.11008575 127.19850113 -297.24312073 127.39089874 -296.34988403 127.58912659 C-293.7408851 128.11482361 -293.7408851 128.11482361 -290 128 C-289.75765625 127.13117188 -289.5153125 126.26234375 -289.265625 125.3671875 C-286.12448788 114.56650834 -282.05252725 106.76441196 -272.125 100.890625 C-264.79137066 97.65160537 -256.23400026 97.90938453 -248.75 100.5 C-243.52566895 102.85010361 -239.4976569 106.486264 -236 111 C-236 111.66 -236 112.32 -236 113 C-234.948125 112.505 -233.89625 112.01 -232.8125 111.5 C-225.48405353 108.76647645 -216.11831062 108.56606256 -208.90625 111.8359375 C-201.62325163 116.28334224 -196.24026507 121.64624049 -194 130 C-192.61434971 137.14540559 -193.05452989 143.01919547 -195 150 C-193.21722656 150.1546875 -193.21722656 150.1546875 -191.3984375 150.3125 C-184.71373799 151.06306275 -178.18046072 152.52205108 -171.625 154 C-170.94903778 154.15239136 -170.27307556 154.30478271 -169.57662964 154.46179199 C-145.1290476 160.03429461 -122.39278782 168.75395823 -100 180 C-99.7525 179.29875 -99.505 178.5975 -99.25 177.875 C-98 175 -98 175 -95.6875 172.25 C-94.8521875 170.64125 -94.8521875 170.64125 -94 169 C-94.67740289 166.96779132 -95.37497147 164.93994419 -96.17578125 162.953125 C-98.45531539 154.78569463 -98.47273952 144.1608573 -95 136.375 C-94.34 135.26125 -93.68 134.1475 -93 133 C-103.21434063 126.29035412 -113.29549325 122.2296991 -125.39453125 120.51953125 C-129.1622307 119.76825085 -131.14485484 118.55460356 -134 116 C-135.84979879 113.02778093 -136.26455983 110.97278069 -135.9375 107.5 C-135.88464844 106.7471875 -135.83179688 105.994375 -135.77734375 105.21875 C-134.63245609 101.95092996 -132.86776106 100.89249009 -130 99 C-112.57285817 90.78836289 -92.04781182 87.2804273 -73 91 C-72.91621094 90.030625 -72.83242188 89.06125 -72.74609375 88.0625 C-72.05803678 83.31168726 -70.14167112 79.29105528 -68.0625 75 C-67.66135986 74.16621826 -67.26021973 73.33243652 -66.84692383 72.47338867 C-62.90201768 64.47893898 -58.22966926 57.20330753 -53 50 C-52.53190918 49.3493457 -52.06381836 48.69869141 -51.58154297 48.02832031 C-42.48251742 35.439966 -32.47851762 23.74361466 -22.03515625 12.2578125 C-19.47266244 9.41496908 -16.98368104 6.5121651 -14.5078125 3.59375 C-10.2746776 -0.88065166 -5.79485286 -1.08436618 0 0 Z " fill="#020201" transform="translate(360,0)"/>
<path d="M0 0 C1.26060745 -0.00426498 2.5212149 -0.00852997 3.82002258 -0.01292419 C5.22999576 -0.01257463 6.63996891 -0.01211307 8.04994202 -0.0115509 C9.52465907 -0.01454078 10.99937535 -0.01794291 12.47409058 -0.02172852 C16.49057064 -0.03059017 20.50702943 -0.03290753 24.52351832 -0.0335443 C27.87111944 -0.03449161 31.21871556 -0.03816783 34.56631476 -0.0417164 C42.46125036 -0.04986918 50.35617456 -0.05229988 58.25111389 -0.05158997 C66.40756918 -0.05098894 74.56395838 -0.06154373 82.72039694 -0.07733363 C89.71232572 -0.09038912 96.70423284 -0.0957747 103.69617373 -0.09513456 C107.87691954 -0.09487898 112.05760666 -0.09776275 116.23834038 -0.10831261 C120.16909239 -0.1179602 124.0997292 -0.11809589 128.03048515 -0.11079597 C129.47611152 -0.10974595 130.92174494 -0.11213758 132.36735916 -0.11815643 C134.33497968 -0.1258203 136.30263907 -0.12005776 138.27026367 -0.11352539 C139.92477744 -0.11434254 139.92477744 -0.11434254 141.61271572 -0.1151762 C144.19862366 0.13371277 144.19862366 0.13371277 146.19862366 2.13371277 C146.49940491 5.10246277 146.49940491 5.10246277 146.51112366 8.63371277 C146.52788147 9.79902527 146.54463928 10.96433777 146.56190491 12.16496277 C146.44202209 13.14465027 146.32213928 14.12433777 146.19862366 15.13371277 C142.75446281 17.42982 141.41487582 17.3840777 137.35877991 17.40715027 C136.21344788 17.42777527 135.06811584 17.44840027 133.88807678 17.46965027 C131.47408546 17.4956491 129.05999806 17.51390402 126.64588928 17.52433777 C125.49926819 17.54754089 124.35264709 17.57074402 123.17127991 17.59465027 C121.59745544 17.60697693 121.59745544 17.60697693 119.99183655 17.61955261 C116.50516373 18.26136128 115.29001778 19.30764055 113.19862366 22.13371277 C113.10946211 25.76021227 113.10946211 25.76021227 114.19862366 29.13371277 C117.77812349 31.52004599 118.77352713 31.22206099 122.94081116 30.80949402 C140.99487265 29.68676383 140.99487265 29.68676383 146.54676819 33.9271698 C150.6407126 38.80990391 153.23587186 44.49706802 155.84217834 50.27238464 C157.93463016 54.68626787 160.58222736 58.68394115 163.26112366 62.75871277 C164.24959464 64.31423254 165.23527658 65.87152816 166.21815491 67.43058777 C167.21160095 68.99832369 168.20509119 70.56603161 169.19862366 72.13371277 C170.24436754 73.78464615 171.28993862 75.43568901 172.33534241 77.08683777 C172.85249817 77.9031366 173.36965393 78.71943542 173.90248108 79.56047058 C174.92346914 81.17715592 175.94064039 82.79625877 176.95375061 84.41789246 C179.14311749 87.91941867 181.34716143 91.38509483 183.72987366 94.75871277 C188.00026304 101.01393102 190.64312666 106.11947098 190.08924866 113.83683777 C188.44525988 119.92248043 184.73184548 124.39026878 180.79920959 129.17375183 C179.08314303 131.27512194 177.42286848 133.41282497 175.76893616 135.56340027 C173.3896103 138.65527954 170.99762086 141.73627378 168.58924866 144.80558777 C165.68852838 148.503601 162.81002405 152.21772135 159.94862366 155.94621277 C159.17131897 156.95812683 158.39401428 157.97004089 157.59315491 159.01261902 C156.33567065 160.65165641 155.07822833 162.29072602 153.82118225 163.93009949 C152.88054773 165.15663527 151.93963473 166.38295755 150.99842834 167.60905457 C150.10910204 168.76756942 149.22040148 169.92656496 148.33241272 171.08610535 C145.31134274 175.02099368 145.31134274 175.02099368 144.19862366 176.13371277 C133.17380986 177.26096588 122.01801008 177.37938885 110.94544983 177.63639832 C108.39886456 177.695915 105.85247219 177.76115079 103.30604553 177.82707214 C91.93507357 178.10965464 80.57280483 178.18447238 69.19862366 178.13371277 C69.26090149 177.36100037 69.32317932 176.58828796 69.38734436 175.79216003 C69.71561792 170.99712879 69.8566968 167.09163974 66.88612366 163.13371277 C59.71556356 156.43975554 47.02034257 156.04425193 37.76112366 154.32121277 C34.99863951 153.79914988 32.23710585 153.27221902 29.47596741 152.74308777 C28.78148499 152.61002731 28.08700256 152.47696686 27.37147522 152.33987427 C19.34980278 150.79244112 11.36682943 149.06940734 3.38783264 147.31632996 C-2.35952368 146.05972622 -8.10647021 144.87311614 -13.89512634 143.82121277 C-15.03546326 143.60988708 -16.17580017 143.3985614 -17.35069275 143.18083191 C-19.50118022 142.78663376 -21.65444666 142.40718524 -23.81065369 142.045578 C-35.50799592 139.8795846 -40.23124149 132.6710053 -46.80137634 123.13371277 C-50.01653585 118.28953911 -51.72545032 113.80617129 -51.41465759 107.91886902 C-50.03695146 101.66215265 -46.25304558 96.43094457 -42.80137634 91.13371277 C-42.25433044 90.29082703 -41.70728455 89.44794128 -41.1436615 88.57951355 C-38.63436206 84.7215255 -36.11792177 80.86845178 -33.58555603 77.02555847 C-29.39420786 70.64961308 -25.37234674 64.20128095 -21.48887634 57.63371277 C-8.73236529 36.06470172 -8.73236529 36.06470172 -4.80137634 32.13371277 C-1.9620601 32.02442326 0.85382342 31.97947913 3.69398499 31.97599792 C4.58503433 31.97091721 5.47608368 31.96583649 6.39413452 31.96060181 C8.33611875 31.94987302 10.27811554 31.94126275 12.22011757 31.93448257 C15.29201429 31.92273182 18.36376797 31.90328867 21.43560791 31.88136292 C30.17207594 31.81962042 38.90853075 31.76568718 47.64515686 31.73234558 C52.98267584 31.71142352 58.31993681 31.67613709 63.65730858 31.63158798 C65.69425612 31.61740469 67.73124933 31.60870031 69.76824379 31.6055336 C72.61746403 31.600636 75.46599755 31.57750688 78.31507874 31.55021667 C79.15939453 31.55322281 80.00371033 31.55622894 80.87361145 31.55932617 C84.20131026 31.51188821 86.73962105 31.37145143 89.72259521 29.82643127 C91.53295696 28.06014071 91.53295696 28.06014071 91.69862366 24.63371277 C91.53294289 21.20703745 91.53294289 21.20703745 89.72160339 19.44000244 C86.01774415 17.52230449 82.40598988 17.71094533 78.33094788 17.733078 C77.43624786 17.72609894 76.54154785 17.71911987 75.61973572 17.71192932 C72.6641652 17.69194257 69.70894326 17.69245275 66.75331116 17.69230652 C64.70114699 17.68053858 62.6489914 17.6671758 60.59684753 17.65228271 C55.19551753 17.61607457 49.79426356 17.59588608 44.39283752 17.58073425 C35.73957296 17.55591153 27.08647635 17.51640947 18.43336868 17.45883369 C15.40536367 17.44245287 12.377516 17.43872252 9.34947205 17.43582153 C7.50214868 17.4260498 5.65482782 17.41578728 3.80751038 17.404953 C2.96071716 17.40750595 2.11392395 17.4100589 1.24147034 17.41268921 C-4.57389626 17.36119285 -4.57389626 17.36119285 -6.80137634 15.13371277 C-7.03184509 11.91105652 -7.03184509 11.91105652 -6.98887634 8.07121277 C-6.98243103 6.80148621 -6.97598572 5.53175964 -6.96934509 4.22355652 C-6.68524342 -1.00259294 -4.73994984 0.00720405 0 0 Z " fill="#FCAC89" transform="translate(285.80137634277344,142.8662872314453)"/>
<path d="M0 0 C19.34750001 -0.8251459 38.85476393 5.38749007 57.60913086 9.55322266 C71.98884116 12.73583981 86.44489625 15.50454876 100.91796875 18.2265625 C99.76861276 24.77512457 96.29370013 28.46599857 91.203125 32.62890625 C81.644164 38.50651684 65.83333869 35.06456361 55.08398438 34.0546875 C52.9198905 33.85174272 50.75504741 33.65945222 48.58984375 33.46875 C40.41196981 32.73344817 32.28634824 31.79843059 24.15698242 30.64355469 C15.90665116 29.40157604 15.90665116 29.40157604 8.23046875 31.7890625 C6.35610421 35.27002521 6.94493313 37.4734251 7.91796875 41.2265625 C10.86082851 44.16942226 14.22482872 43.87688237 18.1953125 44.2265625 C19.0352626 44.30777344 19.87521271 44.38898438 20.74061584 44.47265625 C23.44484712 44.73233187 26.15003518 44.97975947 28.85546875 45.2265625 C30.61270942 45.39239187 32.36987209 45.55905007 34.12695312 45.7265625 C36.75997017 45.97753432 39.39304517 46.2275163 42.02658081 46.47299194 C48.82484364 47.10892833 55.61418415 47.81474317 62.39866638 48.58422852 C75.79124683 50.05241291 89.55780483 51.36872375 100.98046875 42.9765625 C101.61984375 42.3990625 102.25921875 41.8215625 102.91796875 41.2265625 C103.57796875 41.2265625 104.23796875 41.2265625 104.91796875 41.2265625 C104.91796875 40.5665625 104.91796875 39.9065625 104.91796875 39.2265625 C106.31927284 39.19230919 106.31927284 39.19230919 107.74888611 39.15736389 C116.67385023 38.93894771 125.59876112 38.7184554 134.52362728 38.49607182 C139.10890799 38.38188193 143.69420284 38.26835441 148.27954102 38.15649414 C153.58485031 38.02695573 158.89010561 37.89538595 164.1953125 37.76171875 C165.06421364 37.73984875 165.93311478 37.71797874 166.82834625 37.69544601 C177.05381768 37.43552294 187.27284633 37.12237509 197.4921875 36.67578125 C208.28335444 36.208324 219.06411182 36.00814857 229.86523438 35.98632812 C232.87004257 35.97630542 235.874248 35.9449488 238.87890625 35.9140625 C240.80598564 35.90755702 242.73306974 35.90229703 244.66015625 35.8984375 C245.5505661 35.8860907 246.44097595 35.8737439 247.35836792 35.86102295 C248.58839035 35.8655246 248.58839035 35.8655246 249.84326172 35.87011719 C250.56061493 35.86647156 251.27796814 35.86282593 252.01705933 35.85906982 C254.52068629 36.34308267 255.40225009 37.20299563 256.91796875 39.2265625 C257.23046875 42.6015625 257.23046875 42.6015625 255.91796875 46.2265625 C248.09055049 51.74969437 237.56284175 54.64026175 228.66796875 58.1015625 C226.98157762 58.76187656 225.29538352 59.42269401 223.609375 60.08398438 C220.11338678 61.45474202 216.61656872 62.82335023 213.11914062 64.19042969 C205.82679718 67.04276166 198.54492269 69.92153595 191.2628479 72.79995728 C188.11528456 74.04375214 184.96709779 75.28596485 181.81892395 76.5282135 C173.78954633 79.69661664 165.76201747 82.86966555 157.73582458 86.04612732 C153.73417655 87.629285 149.73147457 89.20967209 145.72631836 90.78393555 C144.16520043 91.39762016 142.60408388 92.01130828 141.04296875 92.625 C140.27968765 92.92495377 139.51640656 93.22490753 138.72999573 93.53395081 C134.2474275 95.29877128 129.77531253 97.0872649 125.31117249 98.8981781 C122.52586401 100.02551245 119.73534294 101.13953739 116.94381714 102.25137329 C115.06584959 103.00480797 113.19495573 103.77580273 111.32446289 104.54760742 C102.91311982 107.8819552 94.91994643 109.43745957 85.91796875 110.2265625 C84.66101196 110.34608276 84.66101196 110.34608276 83.37866211 110.46801758 C66.02348442 111.77795216 48.68840015 107.95036199 31.66748047 105.03466797 C27.26677903 104.28204098 22.8616348 103.56077746 18.453125 102.85546875 C17.79077347 102.74942322 17.12842194 102.64337769 16.44599915 102.53411865 C14.49922061 102.22286024 12.55234537 101.91220683 10.60546875 101.6015625 C3.39796716 100.44802923 -3.80541841 99.28196144 -10.99609375 98.02734375 C-16.14566324 97.13478714 -21.29943454 96.31861935 -26.47558594 95.59570312 C-28.09115832 95.36689595 -29.70457688 95.12139724 -31.31347656 94.84960938 C-44.99279408 92.64773369 -55.09634128 99.89501746 -66.4296875 106.67773438 C-69.90453658 108.706862 -73.45673497 110.48296762 -77.08203125 112.2265625 C-84.74095895 94.94569062 -92.36639644 77.65023724 -99.88989258 60.30990601 C-100.59992927 58.67421035 -101.31102566 57.03897428 -102.02319336 55.40420532 C-103.02247421 53.10934454 -104.01766844 50.8127554 -105.01171875 48.515625 C-105.30895844 47.83478348 -105.60619812 47.15394196 -105.91244507 46.45246887 C-107.22789005 43.40053438 -108.33167418 40.46089817 -109.08203125 37.2265625 C-67.5637887 15.83135879 -67.5637887 15.83135879 -47.08203125 9.2265625 C-46.40962402 9.00516602 -45.7372168 8.78376953 -45.04443359 8.55566406 C-30.37993657 3.7973182 -15.32226644 1.12635165 0 0 Z " fill="#FECDBE" transform="translate(240.08203125,296.7734375)"/>
<path d="M0 0 C5.28644683 1.86580476 7.13560424 4.29467765 10 9 C11.0797204 11.26496468 12.10114821 13.55830434 13.07421875 15.87109375 C13.35510849 16.53305756 13.63599823 17.19502136 13.92539978 17.87704468 C14.53283177 19.3101167 15.1375468 20.74434282 15.73980713 22.17959595 C17.38815833 26.10683755 19.05723771 30.02528603 20.72265625 33.9453125 C21.24475677 35.17665672 21.24475677 35.17665672 21.77740479 36.43287659 C25.66300282 45.58717349 29.64167066 54.70041124 33.625 63.8125 C35.04850204 67.07147272 36.47155266 70.33064245 37.89453125 73.58984375 C38.41246246 74.77583916 38.41246246 74.77583916 38.94085693 75.98579407 C42.94456048 85.1572759 46.92009295 94.34093997 50.89111328 103.52661133 C51.37692871 104.64962646 51.86274414 105.7726416 52.36328125 106.9296875 C52.81268066 107.97318359 53.26208008 109.01667969 53.72509766 110.09179688 C54.54064629 111.95215983 55.37701309 113.80362144 56.23974609 115.64257812 C56.60793457 116.42826172 56.97612305 117.21394531 57.35546875 118.0234375 C57.83536255 119.01609619 57.83536255 119.01609619 58.32495117 120.02880859 C59.59815293 123.74664981 59.12199039 127.29599327 58 131 C55.63424604 134.97108701 53.48273581 136.85325363 49 138 C44.3858278 138.50336424 41.35112249 138.20287447 37.51000977 135.49023438 C34.33041653 132.35228173 32.88980539 128.12146618 31.1875 124.0625 C30.765896 123.09916748 30.34429199 122.13583496 29.90991211 121.14331055 C28.58562933 118.10405808 27.28870562 115.05449413 26 112 C25.57686523 110.99775391 25.15373047 109.99550781 24.71777344 108.96289062 C24.30301758 107.97998047 23.88826172 106.99707031 23.4609375 105.984375 C23.05721924 105.03167725 22.65350098 104.07897949 22.23754883 103.09741211 C21.46811071 101.2738134 20.70718598 99.44659354 19.95581055 97.61547852 C19.61074463 96.78975342 19.26567871 95.96402832 18.91015625 95.11328125 C18.61246338 94.38923096 18.31477051 93.66518066 18.00805664 92.91918945 C16.89737513 90.80461755 15.87295999 89.48298634 14 88 C9.3350149 87.49451405 9.3350149 87.49451405 5.0625 89.125 C3.52438906 91.83931342 3.80645335 93.91077915 4 97 C4.85826437 99.64368557 4.85826437 99.64368557 6.15234375 102.1875 C6.59900391 103.13367188 7.04566406 104.07984375 7.50585938 105.0546875 C8.21452148 106.51261719 8.21452148 106.51261719 8.9375 108 C14.57946068 119.70299409 14.57946068 119.70299409 15 125 C4.79205663 131.14544782 -5.55865329 137.01148032 -16 142.75 C-16.61556763 143.08841919 -17.23113525 143.42683838 -17.86535645 143.7755127 C-20.37320611 145.15416837 -22.88110942 146.53272639 -25.38912964 147.91107178 C-31.91808621 151.50113454 -38.43164094 155.11823851 -44.9375 158.75 C-45.96681641 159.32202148 -46.99613281 159.89404297 -48.05664062 160.48339844 C-56.5374219 165.02814891 -56.5374219 165.02814891 -64 171 C-64 135.36 -64 99.72 -64 63 C-62.68 63.66 -61.36 64.32 -60 65 C-53.07051851 65.48205813 -47.54876032 62.63991095 -41.6875 59.3125 C-40.02515033 58.40419578 -38.36238977 57.49664314 -36.69921875 56.58984375 C-35.89919434 56.14753418 -35.09916992 55.70522461 -34.27490234 55.24951172 C-31.21056149 53.5663934 -28.1171966 51.95827769 -25 50.375 C-24.0925 49.90835938 -23.185 49.44171875 -22.25 48.9609375 C-20 48 -20 48 -17 48 C-16.76812988 48.5347998 -16.53625977 49.06959961 -16.29736328 49.62060547 C-15.24477038 52.0408853 -14.18498196 54.45794771 -13.125 56.875 C-12.76019531 57.71675781 -12.39539062 58.55851562 -12.01953125 59.42578125 C-11.66503906 60.23144531 -11.31054688 61.03710938 -10.9453125 61.8671875 C-10.45828857 62.98262939 -10.45828857 62.98262939 -9.96142578 64.12060547 C-9.03409646 66.17089061 -9.03409646 66.17089061 -7 68 C-2.36102465 68.55269886 -2.36102465 68.55269886 1.71972656 66.72143555 C3.37915431 64.84187893 3.37915431 64.84187893 3.046875 61.14453125 C2.05884869 54.53944188 -0.94544641 48.68724144 -3.75 42.6875 C-4.80863427 40.37952161 -5.86593614 38.07093158 -6.921875 35.76171875 C-7.43637207 34.63757568 -7.95086914 33.51343262 -8.48095703 32.35522461 C-9.96559935 29.07598331 -11.42858542 25.79085351 -12.8515625 22.484375 C-13.25197754 21.5572168 -13.65239258 20.63005859 -14.06494141 19.67480469 C-15.54711608 15.43493374 -16.02421058 11.39523438 -15 7 C-10.71701106 1.44369002 -6.98683702 -0.59210483 0 0 Z " fill="#FECDBE" transform="translate(64,331)"/>
<path d="M0 0 C9.60864437 0.45657855 18.73916262 2.22120547 28.0625 4.4375 C29.16925583 4.69818771 29.16925583 4.69818771 30.29837036 4.96414185 C51.88392095 10.09858442 72.19416901 18.01265039 92 28 C90.59022093 31.83033493 88.80595983 35.1473099 86.65625 38.61328125 C85.65875732 40.22722778 85.65875732 40.22722778 84.64111328 41.8737793 C84.11617279 42.71675064 84.11617279 42.71675064 83.58062744 43.57675171 C82.49092255 45.32708057 81.40675639 47.08073703 80.32373047 48.83520508 C77.1804658 53.92039509 74.01865987 58.99243785 70.7890625 64.0234375 C70.33080078 64.74104248 69.87253906 65.45864746 69.40039062 66.19799805 C68.58149197 67.47541097 67.75526395 68.74817146 66.91992188 70.01489258 C61.86895295 77.8952564 61.10943739 85.85544242 62 95 C63.90969305 102.18595839 67.56603653 108.02515575 72.25 113.75 C74 116 74 116 74 118 C70.9398596 118.53537872 67.87666284 119.0506887 64.8125 119.5625 C63.94818359 119.71396484 63.08386719 119.86542969 62.19335938 120.02148438 C61.35224609 120.16005859 60.51113281 120.29863281 59.64453125 120.44140625 C58.87471924 120.57232666 58.10490723 120.70324707 57.31176758 120.83813477 C53.70216696 121.09087161 51.04937043 120.83292905 48.16650391 118.54467773 C47.60882324 117.93052002 47.05114258 117.3163623 46.4765625 116.68359375 C45.8475 116.00103516 45.2184375 115.31847656 44.5703125 114.61523438 C43.92835938 113.89658203 43.28640625 113.17792969 42.625 112.4375 C41.99078125 111.74591797 41.3565625 111.05433594 40.703125 110.34179688 C29.96101348 98.58028089 29.96101348 98.58028089 25.625 92.875 C17.19370515 83.64072469 7.76018132 82.37114102 -4.0625 80.625 C-5.70800399 80.36531156 -7.35319144 80.10360894 -8.99804688 79.83984375 C-12.99542594 79.20327601 -16.99610391 78.59413679 -21 78 C-19.95872081 71.22024263 -18.14984041 64.67939164 -16.375 58.0625 C-16.19770355 57.39793793 -16.0204071 56.73337585 -15.83773804 56.04867554 C-13.23751457 46.3165439 -10.44457394 36.66218757 -7.45043945 27.04296875 C-4.68034508 18.10147398 -2.29734539 9.07292625 0 0 Z " fill="#FDCCBD" transform="translate(159,165)"/>
<path d="M0 0 C3.04236714 1.33759245 4.87624998 2.70592445 7 5.25 C7.6084375 5.971875 8.216875 6.69375 8.84375 7.4375 C9.91109375 8.7059375 9.91109375 8.7059375 11 10 C11.8559375 10.969375 12.711875 11.93875 13.59375 12.9375 C54.8088015 59.70032275 54.8088015 59.70032275 54 79 C52.28103516 79.79664062 52.28103516 79.79664062 50.52734375 80.609375 C48.9973224 81.32275919 47.4673786 82.03630973 45.9375 82.75 C45.18533203 83.09804687 44.43316406 83.44609375 43.65820312 83.8046875 C38.96489489 85.99896148 34.46322598 88.36829703 30 91 C29.30777344 89.89205078 29.30777344 89.89205078 28.6015625 88.76171875 C18.78702687 72.97683954 18.78702687 72.97683954 3.7265625 63.3984375 C-1.509211 63.34004597 -4.8055937 64.37971758 -8.8203125 67.765625 C-15.74482189 74.8638676 -22.14225847 82.81490112 -26 92 C-29.47670335 90.70391447 -32.4942898 89.17167921 -35.625 87.1875 C-40.8814256 83.96556443 -46.34183946 81.43107278 -52 79 C-51.5653448 72.40523139 -49.78652522 67.7631659 -46.625 62 C-46.17874268 61.17330811 -45.73248535 60.34661621 -45.27270508 59.49487305 C-35.07292431 40.96968334 -21.43790403 25.01151205 -7.65625 9.0859375 C-5.06517036 6.08904907 -2.5280752 3.05017769 0 0 Z " fill="#DF9773" transform="translate(354,17)"/>
<path d="M0 0 C0.99 0.495 0.99 0.495 2 1 C2 1.66 2 2.32 2 3 C3.01191406 3.20753906 4.02382812 3.41507813 5.06640625 3.62890625 C16.97892398 6.09503537 28.84630108 8.74834588 40.70727539 11.44946289 C49.12542189 13.36382973 57.55419891 15.21167888 66 17 C64.66343319 24.31451977 62.86052036 31.41747538 60.8125 38.5625 C60.18477255 40.77730881 59.55717202 42.9921536 58.9296875 45.20703125 C58.60967773 46.33189941 58.28966797 47.45676758 57.95996094 48.61572266 C56.73161744 52.94616455 55.52108713 57.28146969 54.31152344 61.6171875 C50.92405211 73.75909589 47.47815603 85.88378613 44 98 C35.2733467 97.6386479 26.92601399 96.13588983 18.38793945 94.37207031 C11.73874748 92.91944642 11.73874748 92.91944642 5 93 C3.35 94.32 1.7 95.64 0 97 C0 64.99 0 32.98 0 0 Z " fill="#FDCCBD" transform="translate(0,127)"/>
<path d="M0 0 C5.28644683 1.86580476 7.13560424 4.29467765 10 9 C11.0797204 11.26496468 12.10114821 13.55830434 13.07421875 15.87109375 C13.35510849 16.53305756 13.63599823 17.19502136 13.92539978 17.87704468 C14.53283177 19.3101167 15.1375468 20.74434282 15.73980713 22.17959595 C17.38815833 26.10683755 19.05723771 30.02528603 20.72265625 33.9453125 C21.24475677 35.17665672 21.24475677 35.17665672 21.77740479 36.43287659 C25.66300282 45.58717349 29.64167066 54.70041124 33.625 63.8125 C35.04850204 67.07147272 36.47155266 70.33064245 37.89453125 73.58984375 C38.23981873 74.38050735 38.5851062 75.17117096 38.94085693 75.98579407 C42.94456048 85.1572759 46.92009295 94.34093997 50.89111328 103.52661133 C51.37692871 104.64962646 51.86274414 105.7726416 52.36328125 106.9296875 C52.81268066 107.97318359 53.26208008 109.01667969 53.72509766 110.09179688 C54.54064629 111.95215983 55.37701309 113.80362144 56.23974609 115.64257812 C56.60793457 116.42826172 56.97612305 117.21394531 57.35546875 118.0234375 C57.83536255 119.01609619 57.83536255 119.01609619 58.32495117 120.02880859 C59.59815293 123.74664981 59.12199039 127.29599327 58 131 C55.63424604 134.97108701 53.48273581 136.85325363 49 138 C44.3858278 138.50336424 41.35112249 138.20287447 37.51000977 135.49023438 C34.33041653 132.35228173 32.88980539 128.12146618 31.1875 124.0625 C30.765896 123.09916748 30.34429199 122.13583496 29.90991211 121.14331055 C28.58562933 118.10405808 27.28870562 115.05449413 26 112 C25.57686523 110.99775391 25.15373047 109.99550781 24.71777344 108.96289062 C24.09563965 107.48852539 24.09563965 107.48852539 23.4609375 105.984375 C23.05721924 105.03167725 22.65350098 104.07897949 22.23754883 103.09741211 C21.46811071 101.2738134 20.70718598 99.44659354 19.95581055 97.61547852 C19.61074463 96.78975342 19.26567871 95.96402832 18.91015625 95.11328125 C18.61246338 94.38923096 18.31477051 93.66518066 18.00805664 92.91918945 C16.89751584 90.80488545 15.87787793 89.47707626 14 88 C12.86433594 87.93554688 11.72867188 87.87109375 10.55859375 87.8046875 C7 87 7 87 5.77783203 85.47753906 C4.72835268 83.39509946 3.8741519 81.31094774 3.0625 79.125 C2.76021484 78.39152344 2.45792969 77.65804687 2.14648438 76.90234375 C0.90880855 73.82078353 0 71.34606864 0 68 C0.4940332 67.52264404 0.98806641 67.04528809 1.49707031 66.5534668 C3.44245072 64.89836707 3.44245072 64.89836707 3.046875 61.14453125 C2.05884869 54.53944188 -0.94544641 48.68724144 -3.75 42.6875 C-4.80863427 40.37952161 -5.86593614 38.07093158 -6.921875 35.76171875 C-7.43637207 34.63757568 -7.95086914 33.51343262 -8.48095703 32.35522461 C-9.96559935 29.07598331 -11.42858542 25.79085351 -12.8515625 22.484375 C-13.25197754 21.5572168 -13.65239258 20.63005859 -14.06494141 19.67480469 C-15.54711608 15.43493374 -16.02421058 11.39523438 -15 7 C-10.71701106 1.44369002 -6.98683702 -0.59210483 0 0 Z " fill="#FCDE77" transform="translate(64,331)"/>
<path d="M0 0 C3.78580423 2.03850997 7.05061257 4.10122513 9 8 C9.24343481 13.36122712 8.79646801 17.83701213 7.4375 23.0625 C7.26476562 23.73023438 7.09203125 24.39796875 6.9140625 25.0859375 C5.00666989 32.28731775 2.7722447 39.39328611 0.56811523 46.50805664 C-1.11676322 51.97861113 -2.66592154 57.43367264 -4 63 C-5.82353263 70.60853271 -8.11755324 78.04030773 -10.43359375 85.51171875 C-12.1170858 90.98126159 -13.66623718 96.43498961 -15 102 C-16.62834655 108.76010537 -18.54798064 115.40746619 -20.5625 122.0625 C-20.85576172 123.03896484 -21.14902344 124.01542969 -21.45117188 125.02148438 C-26.11386642 140.25154986 -26.11386642 140.25154986 -31 143 C-34.70602135 144.23534045 -37.09753614 144.45528745 -41 144 C-44.27269513 141.89797249 -47.2442035 139.511593 -49 136 C-49.81361116 128.28600898 -48.09198801 121.51897697 -45.875 114.1875 C-45.55805176 113.09945068 -45.24110352 112.01140137 -44.91455078 110.89038086 C-44.26470349 108.66138193 -43.60961378 106.43390451 -42.94921875 104.20800781 C-41.55691232 99.50252773 -40.21718065 94.78246509 -38.875 90.0625 C-38.38162781 88.33981012 -37.88814039 86.61715324 -37.39453125 84.89453125 C-35.68110719 78.89695985 -34.01543188 72.88646296 -32.3515625 66.875 C-29.84695403 57.82952481 -27.31160984 48.79258985 -24.77392578 39.75634766 C-24.30811292 38.09734854 -23.8427883 36.43821207 -23.37841797 34.77880859 C-22.27690367 30.84511429 -21.14379399 26.92157938 -20 23 C-19.81228027 22.32582031 -19.62456055 21.65164062 -19.43115234 20.95703125 C-18.82363453 18.77915565 -18.19468454 16.60832823 -17.5625 14.4375 C-17.38122559 13.76968506 -17.19995117 13.10187012 -17.01318359 12.41381836 C-14.50082584 3.98744341 -8.8348116 -0.89845542 0 0 Z " fill="#FDF6BD" transform="translate(142,125)"/>
<path d="M0 0 C2.95943469 1.82021144 5.4202043 3.8404086 7 7 C7.81857595 14.79155823 6.07533435 21.74974676 3.9375 29.1875 C3.46703247 30.88011963 3.46703247 30.88011963 2.98706055 32.60693359 C0.59941778 41.1181568 -1.96581542 49.57370393 -4.58422852 58.01635742 C-6.60386485 64.56321695 -8.30931636 71.11818207 -9.90625 77.78125 C-11.48442436 84.09394744 -13.50254315 90.28355547 -15.42919922 96.49633789 C-17.15813213 102.11187847 -18.75583319 107.72390301 -20.125 113.4375 C-26.22950393 138.29339154 -26.22950393 138.29339154 -32.04296875 142.20703125 C-35.78348311 143.72264885 -39.08163053 143.96890591 -43 143 C-46.53801873 141.01268735 -48.75203386 138.37194922 -51 135 C-51.95573228 128.54451493 -50.34741385 122.61422017 -48.4375 116.5 C-47.88566286 114.65526345 -47.33493041 112.81019617 -46.78515625 110.96484375 C-46.49398926 109.9991748 -46.20282227 109.03350586 -45.90283203 108.03857422 C-44.32618151 102.73219445 -42.85625356 97.39613467 -41.375 92.0625 C-39.30274747 84.64003784 -37.21262955 77.22347471 -35.0859375 69.81640625 C-33.58125684 64.52837386 -32.10447507 59.23263065 -30.625 53.9375 C-27.66781834 43.36357534 -24.69974367 32.79335032 -21.64355469 22.24755859 C-21.05031396 20.17571713 -20.47890028 18.09925759 -19.9140625 16.01953125 C-17.89706142 8.87934742 -16.09864904 4.25065269 -10.1875 -0.4375 C-6.6560291 -1.34559252 -3.44097737 -1.04352097 0 0 Z " fill="#FDDF78" transform="translate(105,115)"/>
<path d="M0 0 C3.67924433 2.33023783 5.04717169 4.86466914 6.77856445 8.71044922 C7.10975784 9.40870819 7.44095123 10.10696716 7.78218079 10.8263855 C8.88373133 13.1751836 9.95023172 15.53740077 11.0090332 17.90576172 C11.38429138 18.7411145 11.75954956 19.57646729 12.1461792 20.43713379 C15.05463346 26.94333181 17.87951036 33.48458906 20.6965332 40.03076172 C21.58273538 42.08067322 22.46937755 44.13039456 23.35644531 46.17993164 C25.52273075 51.18728858 27.68439035 56.19662546 29.84460449 61.206604 C32.05494514 66.33019633 34.27264467 71.4505954 36.49194336 76.5703125 C37.53093637 78.96979218 38.56714922 81.37047794 39.6003418 83.77246094 C42.08015772 89.52612251 44.61230521 95.24685917 47.2434082 100.93310547 C47.76153076 102.06643311 48.27965332 103.19976074 48.81347656 104.36743164 C49.78013249 106.47523296 50.76145265 108.57640712 51.76123047 110.66870117 C54.55911514 116.80153391 56.05447261 122.13750956 55.0090332 128.90576172 C53.32735901 132.39367855 52.0411694 134.22750079 48.8215332 136.34326172 C43.78319493 137.35092937 39.07962133 137.17852422 34.6418457 134.45068359 C31.01297402 130.94295377 29.52216583 127.12084591 27.6027832 122.50732422 C27.2011647 121.57326752 26.7995462 120.63921082 26.38575745 119.67684937 C25.08061994 116.63348263 23.79487186 113.58232597 22.5090332 110.53076172 C21.60861579 108.42210897 20.70683349 106.31403854 19.80371094 104.20654297 C18.01248586 100.02215992 16.22807534 95.83498609 14.44995117 91.64501953 C11.36492599 84.3806054 8.22098276 77.14240434 5.0715332 69.90576172 C4.06318703 67.57917002 3.05536829 65.25234966 2.0480957 62.92529297 C1.55728516 61.79172363 1.06647461 60.6581543 0.56079102 59.49023438 C-0.53627246 56.95607989 -1.633277 54.42189995 -2.73022461 51.88769531 C-4.2179343 48.4507815 -5.70605012 45.01404373 -7.19436646 41.57739258 C-8.02331096 39.66290797 -8.85175761 37.7482085 -9.68017578 35.83349609 C-10.43923218 34.08069336 -10.43923218 34.08069336 -11.21362305 32.29248047 C-11.68880371 31.1911377 -12.16398437 30.08979492 -12.65356445 28.95507812 C-13.49063835 27.04652519 -14.34676887 25.14609137 -15.23071289 23.25878906 C-18.01378285 17.3158909 -19.03900485 12.49792109 -17.9909668 5.90576172 C-13.91216896 -1.23213449 -7.6802145 -2.8097887 0 0 Z " fill="#FCF5BC" transform="translate(103.990966796875,316.09423828125)"/>
<path d="M0 0 C3.93736123 -0.08696177 7.87447628 -0.14037835 11.8125 -0.1875 C12.93205078 -0.21263672 14.05160156 -0.23777344 15.20507812 -0.26367188 C16.27822266 -0.27333984 17.35136719 -0.28300781 18.45703125 -0.29296875 C19.9416687 -0.31653442 19.9416687 -0.31653442 21.45629883 -0.34057617 C24 0 24 0 25.8269043 1.30737305 C27 3 27 3 27.3125 6.375 C25.56980148 11.18816735 23.70477251 11.49416444 19.24487305 13.58935547 C12.48334234 16.52879753 5.6200543 19.20162579 -1.25 21.875 C-2.93639113 22.53531406 -4.62258523 23.19613151 -6.30859375 23.85742188 C-9.80458197 25.22817952 -13.30140003 26.59678773 -16.79882812 27.96386719 C-24.09117157 30.81619916 -31.37304606 33.69497345 -38.65512085 36.57339478 C-41.80268419 37.81718964 -44.95087096 39.05940235 -48.0990448 40.301651 C-56.12842242 43.47005414 -64.15595128 46.64310305 -72.18214417 49.81956482 C-76.1837922 51.4027225 -80.18649418 52.98310959 -84.19165039 54.55737305 C-85.75276832 55.17105766 -87.31388487 55.78474578 -88.875 56.3984375 C-89.6382811 56.69839127 -90.40156219 56.99834503 -91.18797302 57.30738831 C-95.67054125 59.07220878 -100.14265622 60.8607024 -104.60679626 62.6716156 C-107.39210474 63.79894995 -110.18262581 64.91297489 -112.97415161 66.02481079 C-114.85211916 66.77824547 -116.72301302 67.54924023 -118.59350586 68.32104492 C-127.00484893 71.6553927 -134.99802232 73.21089707 -144 74 C-145.25695679 74.11952026 -145.25695679 74.11952026 -146.53930664 74.24145508 C-163.11747658 75.49274265 -179.61922282 71.99854661 -195.88261414 69.20883179 C-204.5745607 67.7182819 -213.28646625 66.35764481 -222 65 C-218.13174801 62.42116534 -216.20800466 62.93883656 -211.625 63.3125 C-210.31789063 63.41175781 -209.01078125 63.51101563 -207.6640625 63.61328125 C-204 64 -204 64 -201.69238281 64.51147461 C-196.58383092 65.43840718 -191.38073179 65.22558492 -186.20214844 65.24023438 C-184.1655786 65.24980922 -182.13007781 65.28080618 -180.09375 65.3125 C-161.71212285 65.47651938 -146.68061621 59.9039869 -129.875 53.125 C-127.63288788 52.23153618 -125.3902826 51.33930906 -123.1472168 50.44824219 C-118.46160826 48.58485035 -113.77884167 46.71456092 -109.09814453 44.83886719 C-102.16571006 42.06275628 -95.22311678 39.3128527 -88.27734375 36.5703125 C-71.20056234 29.82481783 -54.12926816 23.06596977 -37.08984375 16.2265625 C-36.1586824 15.85301636 -35.22752106 15.47947021 -34.2681427 15.09460449 C-29.94907778 13.36154293 -25.63121776 11.62560007 -21.31567383 9.88378906 C-14.27240289 7.04841995 -7.25157945 4.26818809 0 2 C0 1.34 0 0.68 0 0 Z " fill="#FCAE9D" transform="translate(470,333)"/>
<path d="M0 0 C4.33292436 0.79584325 5.47728986 1.97096645 8.0625 5.5625 C8.68286918 9.68203868 8.53280555 13.72107244 8.375 17.875 C8.34116211 19.55819336 8.34116211 19.55819336 8.30664062 21.27539062 C8.2478546 24.03833359 8.15817823 26.80058847 8.0625 29.5625 C12.6825 29.5625 17.3025 29.5625 22.0625 29.5625 C22.00449219 27.96019531 21.94648438 26.35789063 21.88671875 24.70703125 C21.83981546 22.59638331 21.79431592 20.48570385 21.75 18.375 C21.70810547 17.31990234 21.66621094 16.26480469 21.62304688 15.17773438 C21.50178234 7.48956315 21.50178234 7.48956315 23.16259766 4.74365234 C24.51953125 3.38671875 24.51953125 3.38671875 27.0625 1.5625 C27.3925 1.2325 27.7225 0.9025 28.0625 0.5625 C32.54914119 0.2952625 37.04150658 0.29118459 41.53515625 0.26733398 C43.78968854 0.25017363 46.04273409 0.20631306 48.296875 0.16210938 C49.73436421 0.15197788 51.17186591 0.14346321 52.609375 0.13671875 C53.91745117 0.12213623 55.22552734 0.10755371 56.57324219 0.0925293 C60.62745754 0.63859455 62.27187887 1.61184207 65.0625 4.5625 C65.6875 8.0625 65.6875 8.0625 65.0625 11.5625 C62.80608536 14.37181094 60.99025982 15.45214971 57.40234375 15.87890625 C54.17585189 15.95670237 50.97587213 15.91053936 47.75 15.8125 C46.06680664 15.78542969 46.06680664 15.78542969 44.34960938 15.7578125 C41.58687268 15.71078719 38.82457638 15.63904715 36.0625 15.5625 C36.0625 20.1825 36.0625 24.8025 36.0625 29.5625 C37.66480469 29.51609375 39.26710938 29.4696875 40.91796875 29.421875 C43.02862718 29.38435218 45.13930578 29.34795257 47.25 29.3125 C48.83264648 29.26222656 48.83264648 29.26222656 50.44726562 29.2109375 C58.30540413 29.11178118 58.30540413 29.11178118 62.23828125 31.453125 C65.41394992 35.1252044 65.25149242 38.17214565 65.30078125 42.8359375 C65.308853 43.55609039 65.31692474 44.27624329 65.32524109 45.01821899 C65.33907614 46.54304602 65.3498009 48.06790394 65.35766602 49.59277344 C65.3748841 51.92182201 65.41877204 54.2494525 65.46289062 56.578125 C65.47301744 58.0598854 65.48153358 59.54165786 65.48828125 61.0234375 C65.50578934 61.71835297 65.52329742 62.41326843 65.54133606 63.12924194 C65.52632996 66.4834288 65.27650491 68.27413525 63.25463867 70.99853516 C60.02533715 73.30245603 57.92522528 73.18329513 54.0625 72.5625 C51.31640725 70.32277896 50.1819678 68.53160877 49.74609375 64.99584961 C49.66839327 61.90444383 49.71432106 58.84074866 49.8125 55.75 C49.83054687 54.67556641 49.84859375 53.60113281 49.8671875 52.49414062 C49.91419663 49.84987679 49.98593634 47.20607317 50.0625 44.5625 C45.7725 44.5625 41.4825 44.5625 37.0625 44.5625 C37.10890625 45.93664062 37.1553125 47.31078125 37.203125 48.7265625 C37.24065677 50.54685318 37.27705542 52.36716748 37.3125 54.1875 C37.34601563 55.09113281 37.37953125 55.99476563 37.4140625 56.92578125 C37.49751666 62.64239096 37.06302367 66.12835314 33.0625 70.5625 C27.94989332 73.99286074 21.23445895 72.97306623 15.30859375 72.98803711 C13.06920919 72.99996427 10.83255589 73.0491969 8.59375 73.09960938 C7.16668006 73.10907124 5.73959328 73.11630741 4.3125 73.12109375 C2.37117188 73.14127563 2.37117188 73.14127563 0.390625 73.16186523 C-2.9375 72.5625 -2.9375 72.5625 -5.390625 70.25415039 C-6.9375 67.5625 -6.9375 67.5625 -6.9375 63.9375 C-5.8156551 60.15127345 -5.26493867 59.47352896 -1.9375 57.5625 C0.62792969 57.22192383 0.62792969 57.22192383 3.484375 57.26953125 C5.02158203 57.2840332 5.02158203 57.2840332 6.58984375 57.29882812 C8.18505859 57.3365332 8.18505859 57.3365332 9.8125 57.375 C11.43091797 57.39530273 11.43091797 57.39530273 13.08203125 57.41601562 C15.74240121 57.45133027 18.40251413 57.50513609 21.0625 57.5625 C21.0625 53.2725 21.0625 48.9825 21.0625 44.5625 C19.68835938 44.60890625 18.31421875 44.6553125 16.8984375 44.703125 C15.07814682 44.74065677 13.25783252 44.77705542 11.4375 44.8125 C10.53386719 44.84601563 9.63023437 44.87953125 8.69921875 44.9140625 C2.95758466 44.99788198 -0.4378759 44.50854259 -4.9375 40.5625 C-7.32881157 36.97553265 -7.2601333 34.33873424 -7.2734375 30.19140625 C-7.2800943 29.4726683 -7.2867511 28.75393036 -7.29360962 28.01341248 C-7.30372573 26.49456336 -7.30842696 24.97566988 -7.30810547 23.45678711 C-7.3124784 21.13646034 -7.34880317 18.81803706 -7.38671875 16.49804688 C-7.39258732 15.02083983 -7.39655644 13.54362376 -7.3984375 12.06640625 C-7.41999405 11.02873863 -7.41999405 11.02873863 -7.44198608 9.97010803 C-7.41014699 6.60316283 -7.15057449 4.8435452 -5.09228516 2.12866211 C-2.9375 0.5625 -2.9375 0.5625 0 0 Z " fill="#040302" transform="translate(325.9375,209.4375)"/>
<path d="M0 0 C6.93881574 -1.3432823 14.19784147 -2.36189576 21 0 C26.53104747 4.67291599 29.43456979 11.72748254 32.546875 18.12255859 C34.75180289 22.48870109 37.39283263 26.53271784 40.0625 30.625 C41.0503489 32.18091491 42.03602765 33.73820977 43.01953125 35.296875 C44.0129773 36.86461092 45.00646753 38.43231885 46 40 C47.04574389 41.65093338 48.09131496 43.30197624 49.13671875 44.953125 C49.65387451 45.76942383 50.17103027 46.58572266 50.70385742 47.42675781 C51.72484548 49.04344315 52.74201673 50.66254601 53.75512695 52.28417969 C55.94449383 55.7857059 58.14853778 59.25138206 60.53125 62.625 C64.80163939 68.88021825 67.444503 73.98575822 66.890625 81.703125 C65.24663622 87.78876767 61.53322182 92.25655601 57.60058594 97.04003906 C55.88451937 99.14140917 54.22424482 101.2791122 52.5703125 103.4296875 C50.19098664 106.52156677 47.7989972 109.60256101 45.390625 112.671875 C42.48990472 116.36988823 39.61140039 120.08400858 36.75 123.8125 C35.58404297 125.33037109 35.58404297 125.33037109 34.39453125 126.87890625 C33.137047 128.51794364 31.87960468 130.15701326 30.62255859 131.79638672 C29.68192407 133.02292251 28.74101107 134.24924478 27.79980469 135.4753418 C26.91047839 136.63385665 26.02177782 137.7928522 25.13378906 138.95239258 C22.11271909 142.88728091 22.11271909 142.88728091 21 144 C19.07521187 144.15806531 17.1450079 144.251135 15.21484375 144.31640625 C13.46010742 144.37924805 13.46010742 144.37924805 11.66992188 144.44335938 C10.43822266 144.48267578 9.20652344 144.52199219 7.9375 144.5625 C6.08415039 144.62727539 6.08415039 144.62727539 4.19335938 144.69335938 C1.12902665 144.79984198 -1.93539073 144.90185424 -5 145 C-5 144.67 -5 144.34 -5 144 C-4.09765625 143.94328125 -3.1953125 143.8865625 -2.265625 143.828125 C1.94609808 142.76008039 2.81898846 141.29445194 5.25 137.75 C6.02613494 136.64888654 6.80352317 135.54865563 7.58203125 134.44921875 C7.9785791 133.87864746 8.37512695 133.30807617 8.78369141 132.72021484 C10.75185085 129.93666377 12.84548727 127.25345716 14.9375 124.5625 C15.78154372 123.4676743 16.62529233 122.37262102 17.46875 121.27734375 C19.13253991 119.12145597 20.79973159 116.96824784 22.46875 114.81640625 C24.54633937 112.13489036 26.61140902 109.44414196 28.66748047 106.74609375 C29.6011908 105.52258765 30.53797922 104.30142731 31.47705078 103.08203125 C32.99568768 101.10445227 34.49914056 99.1160924 36 97.125 C36.46913818 96.51865723 36.93827637 95.91231445 37.42163086 95.28759766 C41.99000962 89.16675937 43.92116179 82.68867848 43 75 C41.34479788 68.16461312 38.18347011 62.43153943 34.5 56.5 C33.96955078 55.63125244 33.43910156 54.76250488 32.89257812 53.86743164 C28.64222264 46.94291523 24.25051769 40.11261756 19.8046875 33.3125 C16.69626334 28.5514119 13.65748113 23.74720625 10.625 18.9375 C10.13708984 18.16398193 9.64917969 17.39046387 9.14648438 16.59350586 C8.21600446 15.11667296 7.28722969 13.63876405 6.36035156 12.15966797 C5.42796482 10.67942871 4.48673625 9.20473262 3.53808594 7.73486328 C3.07950195 7.01927246 2.62091797 6.30368164 2.1484375 5.56640625 C1.73513184 4.92775635 1.32182617 4.28910645 0.89599609 3.63110352 C0 2 0 2 0 0 Z " fill="#FB9367" transform="translate(409,175)"/>
<path d="M0 0 C1.26060745 -0.00426498 2.5212149 -0.00852997 3.82002258 -0.01292419 C5.22999576 -0.01257463 6.63996891 -0.01211307 8.04994202 -0.0115509 C9.52465907 -0.01454078 10.99937535 -0.01794291 12.47409058 -0.02172852 C16.49057064 -0.03059017 20.50702943 -0.03290753 24.52351832 -0.0335443 C27.87111944 -0.03449161 31.21871556 -0.03816783 34.56631476 -0.0417164 C42.46125036 -0.04986918 50.35617456 -0.05229988 58.25111389 -0.05158997 C66.40756918 -0.05098894 74.56395838 -0.06154373 82.72039694 -0.07733363 C89.71232572 -0.09038912 96.70423284 -0.0957747 103.69617373 -0.09513456 C107.87691954 -0.09487898 112.05760666 -0.09776275 116.23834038 -0.10831261 C120.16909239 -0.1179602 124.0997292 -0.11809589 128.03048515 -0.11079597 C129.47611152 -0.10974595 130.92174494 -0.11213758 132.36735916 -0.11815643 C134.33497968 -0.1258203 136.30263907 -0.12005776 138.27026367 -0.11352539 C139.92477744 -0.11434254 139.92477744 -0.11434254 141.61271572 -0.1151762 C144.19862366 0.13371277 144.19862366 0.13371277 146.19862366 2.13371277 C146.49940491 5.10246277 146.49940491 5.10246277 146.51112366 8.63371277 C146.52788147 9.79902527 146.54463928 10.96433777 146.56190491 12.16496277 C146.44202209 13.14465027 146.32213928 14.12433777 146.19862366 15.13371277 C142.75446281 17.42982 141.41487582 17.3840777 137.35877991 17.40715027 C136.21344788 17.42777527 135.06811584 17.44840027 133.88807678 17.46965027 C131.47408546 17.4956491 129.05999806 17.51390402 126.64588928 17.52433777 C125.49926819 17.54754089 124.35264709 17.57074402 123.17127991 17.59465027 C121.59745544 17.60697693 121.59745544 17.60697693 119.99183655 17.61955261 C116.51318809 18.2598842 115.3563444 19.38253306 113.19862366 22.13371277 C112.70362366 23.61871277 112.70362366 23.61871277 112.19862366 25.13371277 C109.1160091 25.30835247 106.03466533 25.41465344 102.94862366 25.50871277 C102.07592834 25.55898621 101.20323303 25.60925964 100.30409241 25.66105652 C97.80155366 25.71836657 95.63828006 25.70341898 93.19862366 25.13371277 C90.71424866 22.17277527 90.71424866 22.17277527 89.19862366 19.13371277 C85.89034916 17.47957552 82.19596089 17.97131476 78.55799866 17.96012878 C77.6635907 17.95344177 76.76918274 17.94675476 75.84767151 17.93986511 C73.90188469 17.92579675 71.95608119 17.91390841 70.01026917 17.90391731 C66.93464587 17.88754461 63.85914668 17.86430974 60.78358459 17.83901978 C52.0378789 17.76813079 43.2921231 17.70802321 34.54627991 17.65690613 C29.20118229 17.62518397 23.85622783 17.58392821 18.51124573 17.53671074 C16.46984929 17.52065236 14.42841986 17.50834864 12.38697815 17.49980354 C9.53758635 17.48770261 6.68853368 17.46357617 3.83924866 17.43669128 C2.98931335 17.43610214 2.13937805 17.435513 1.26368713 17.43490601 C-4.57347807 17.36161104 -4.57347807 17.36161104 -6.80137634 15.13371277 C-7.03184509 11.91105652 -7.03184509 11.91105652 -6.98887634 8.07121277 C-6.98243103 6.80148621 -6.97598572 5.53175964 -6.96934509 4.22355652 C-6.68524342 -1.00259294 -4.73994984 0.00720405 0 0 Z " fill="#FEDBCD" transform="translate(285.80137634277344,142.8662872314453)"/>
<path d="M0 0 C2.12116119 3.18174178 3.65845934 6.4512873 5.1875 9.9375 C5.47302734 10.55818359 5.75855469 11.17886719 6.05273438 11.81835938 C8.03633455 16.35023423 8.03633455 16.35023423 7.88745117 19.01269531 C6.58173989 21.93662649 4.74367293 22.64279332 1.9453125 24.14453125 C0.33100342 25.02467896 0.33100342 25.02467896 -1.31591797 25.92260742 C-2.50223068 26.55266193 -3.6885927 27.18262361 -4.875 27.8125 C-6.09728321 28.47425392 -7.31878969 29.13744431 -8.53955078 29.80200195 C-11.08324044 31.18520389 -13.63018699 32.56211003 -16.1796875 33.93457031 C-22.1078621 37.13177542 -27.99022096 40.41124038 -33.875 43.6875 C-34.98472168 44.30439697 -36.09444336 44.92129395 -37.23779297 45.55688477 C-44.50402805 49.59968404 -51.76352773 53.65413395 -59 57.75 C-60.30880127 58.48416138 -60.30880127 58.48416138 -61.64404297 59.2331543 C-62.44213379 59.68730713 -63.24022461 60.14145996 -64.0625 60.609375 C-64.75472656 61.00092773 -65.44695312 61.39248047 -66.16015625 61.79589844 C-68.03561572 63.02330901 -69.47859362 64.36128893 -71 66 C-71.29146369 61.95986485 -71.46829657 57.92242571 -71.625 53.875 C-71.70878906 52.73289062 -71.79257813 51.59078125 -71.87890625 50.4140625 C-71.97726293 47.0305927 -71.90159113 44.26603443 -71 41 C-68.12853461 38.02082112 -64.74767085 36.65479179 -61 35 C-58.98903206 33.89237057 -56.9879995 32.76655443 -54.99609375 31.625 C-52.8107689 30.41508841 -50.62453341 29.20682046 -48.4375 28 C-46.05551328 26.68184914 -43.67426296 25.36237014 -41.29296875 24.04296875 C-40.6910672 23.70968063 -40.08916565 23.37639252 -39.46902466 23.03300476 C-33.05207798 19.47841397 -26.6498264 15.89781553 -20.25 12.3125 C-19.22189209 11.73693359 -18.19378418 11.16136719 -17.13452148 10.56835938 C-15.68348022 9.7552832 -15.68348022 9.7552832 -14.203125 8.92578125 C-13.30400391 8.42256348 -12.40488281 7.9193457 -11.47851562 7.40087891 C-9.2791134 6.15775736 -7.0997931 4.88564049 -4.921875 3.60546875 C-2 2 -2 2 0 2 C0 1.34 0 0.68 0 0 Z " fill="#FDAE9C" transform="translate(71,436)"/>
<path d="M0 0 C3.04236714 1.33759245 4.87624998 2.70592445 7 5.25 C7.6084375 5.971875 8.216875 6.69375 8.84375 7.4375 C9.91109375 8.7059375 9.91109375 8.7059375 11 10 C11.8559375 10.969375 12.711875 11.93875 13.59375 12.9375 C54.8088015 59.70032275 54.8088015 59.70032275 54 79 C52.83082031 79.54269531 51.66164063 80.08539063 50.45703125 80.64453125 C48.90878763 81.36704494 47.36061424 82.08970913 45.8125 82.8125 C45.04357422 83.16892578 44.27464844 83.52535156 43.48242188 83.89257812 C39.52014332 85.74617625 35.69990088 87.64956197 32 90 C32.06960938 89.2471875 32.13921875 88.494375 32.2109375 87.71875 C33.26894912 66.96156964 19.91413616 48.9019812 8 33 C7.56864746 32.4229834 7.13729492 31.8459668 6.69287109 31.25146484 C1.71053844 24.61518401 -3.40266946 18.13482255 -9 12 C-7.55575365 8.76138697 -5.74227753 6.38030837 -3.375 3.75 C-2.74335938 3.04359375 -2.11171875 2.3371875 -1.4609375 1.609375 C-0.97882813 1.07828125 -0.49671875 0.5471875 0 0 Z " fill="#D98557" transform="translate(354,17)"/>
<path d="M0 0 C3.51612549 3.19257821 4.74066128 7.01719272 6.375 11.375 C9.67653884 19.89633833 13.286838 28.24110966 17.0625 36.5625 C20.76505111 44.72405367 24.41269942 52.90321673 27.92578125 61.1484375 C28.25540359 61.92180954 28.58502594 62.69518158 28.92463684 63.49198914 C30.5272796 67.2573923 32.12294284 71.02561965 33.71118164 74.79711914 C36.54165621 81.49374657 39.43866116 88.16067762 42.5703125 94.72265625 C43.08609863 95.81457275 43.60188477 96.90648926 44.13330078 98.03149414 C46.86243365 102.37147931 50.12797439 105.06398719 54.75 107.375 C59.67309315 108.32174868 65.43324223 108.28337888 70 106 C72.99682543 111.44058865 74.69684513 115.75707741 73.609375 121.98828125 C72.38227506 126.03928425 70.31142255 128.25567909 66.6875 130.3125 C62.00281061 131.51090891 58.49908396 131.71948014 54.078125 129.59765625 C49.73422176 126.52993943 48.1837723 121.82239902 46.1875 117.0625 C45.765896 116.09916748 45.34429199 115.13583496 44.90991211 114.14331055 C43.58562933 111.10405808 42.28870562 108.05449413 41 105 C40.57686523 103.99775391 40.15373047 102.99550781 39.71777344 101.96289062 C39.09563965 100.48852539 39.09563965 100.48852539 38.4609375 98.984375 C38.05721924 98.03167725 37.65350098 97.07897949 37.23754883 96.09741211 C36.46811071 94.2738134 35.70718598 92.44659354 34.95581055 90.61547852 C34.61074463 89.78975342 34.26567871 88.96402832 33.91015625 88.11328125 C33.61246338 87.38923096 33.31477051 86.66518066 33.00805664 85.91918945 C31.89751584 83.80488545 30.87787793 82.47707626 29 81 C27.86433594 80.93554688 26.72867188 80.87109375 25.55859375 80.8046875 C22 80 22 80 20.77783203 78.47753906 C19.72835268 76.39509946 18.8741519 74.31094774 18.0625 72.125 C17.76021484 71.39152344 17.45792969 70.65804687 17.14648438 69.90234375 C15.90880855 66.82078353 15 64.34606864 15 61 C15.4940332 60.52264404 15.98806641 60.04528809 16.49707031 59.5534668 C18.44245072 57.89836707 18.44245072 57.89836707 18.046875 54.14453125 C17.05884869 47.53944188 14.05455359 41.68724144 11.25 35.6875 C4.55679094 21.09531996 4.55679094 21.09531996 2.12890625 15.50390625 C1.72486572 14.58037354 1.3208252 13.65684082 0.90454102 12.70532227 C-0.51273355 8.4665046 -0.43888497 4.4083557 0 0 Z " fill="#F6CE66" transform="translate(49,338)"/>
<path d="M0 0 C2.68231369 3.24615001 4.24024365 6.55733205 5.87109375 10.4296875 C6.145513 11.07606674 6.41993225 11.72244598 6.70266724 12.38841248 C7.30241179 13.80235766 7.89972392 15.21733646 8.49490356 16.63320923 C10.13878868 20.54288503 11.80116198 24.44470648 13.4609375 28.34765625 C13.81738846 29.18715317 14.17383942 30.02665009 14.54109192 30.8915863 C19.14807156 41.72747447 23.85874122 52.51836862 28.5625 63.3125 C29.82810016 66.21743539 31.09358426 69.12242022 32.35823059 72.027771 C33.15384075 73.85385905 33.95099214 75.67927649 34.74980164 77.50396729 C36.45888445 81.41499917 38.14788723 85.32862934 39.74560547 89.28662109 C40.00848862 89.92947556 40.27137177 90.57233002 40.54222107 91.23466492 C41.21502961 92.88968428 41.87374791 94.55041365 42.53100586 96.21166992 C45.26116661 101.39384807 49.39148255 104.79698494 54.59765625 107.28515625 C59.29664426 108.68339171 64.15223008 108.2908662 69 108 C69.33 107.34 69.66 106.68 70 106 C72.95875192 111.67094117 73.94739521 116.61034563 73 123 C71.31832581 126.48791684 70.03213619 128.32173907 66.8125 130.4375 C61.77416173 131.44516765 57.07058813 131.2727625 52.6328125 128.54492188 C49.00394082 125.03719205 47.51313263 121.21508419 45.59375 116.6015625 C45.1921315 115.6675058 44.790513 114.7334491 44.37672424 113.77108765 C43.07158673 110.72772091 41.78583866 107.67656425 40.5 104.625 C39.59958259 102.51634725 38.69780028 100.40827682 37.79467773 98.30078125 C36.00345266 94.11639821 34.21904213 89.92922437 32.44091797 85.73925781 C29.35589278 78.47484368 26.21194955 71.23664262 23.0625 64 C22.05415383 61.6734083 21.04633509 59.34658794 20.0390625 57.01953125 C19.54825195 55.88596191 19.05744141 54.75239258 18.55175781 53.58447266 C17.45469434 51.05031817 16.35768979 48.51613823 15.26074219 45.98193359 C13.7730325 42.54501978 12.28491668 39.10828201 10.79660034 35.67163086 C9.96765583 33.75714625 9.13920919 31.84244678 8.31079102 29.92773438 C7.80475342 28.75919922 7.29871582 27.59066406 6.77734375 26.38671875 C6.30248535 25.28497314 5.82762695 24.18322754 5.33837891 23.0480957 C4.50146017 21.14205221 3.64255563 19.24534086 2.75146484 17.36401367 C0.7120658 13.05176871 -0.49696057 9.81497128 -0.25 4.9375 C-0.19585937 3.52791016 -0.19585937 3.52791016 -0.140625 2.08984375 C-0.09421875 1.40019531 -0.0478125 0.71054687 0 0 Z " fill="#F7E69A" transform="translate(86,322)"/>
<path d="M0 0 C0 0.66 0 1.32 0 2 C-0.76570313 2.31130859 -0.76570313 2.31130859 -1.546875 2.62890625 C-10.10523294 6.2555863 -18.41555528 10.37194969 -25 17 C-25.66 17 -26.32 17 -27 17 C-27.66 18.32 -28.32 19.64 -29 21 C-42.53 21 -56.06 21 -70 21 C-70 20.34 -70 19.68 -70 19 C-67.95195205 17.31551086 -65.91534609 15.77124547 -63.75 14.25 C-62.79480469 13.57783447 -62.79480469 13.57783447 -61.8203125 12.89208984 C-43.32941307 0.13355341 -22.22958736 -4.68191652 0 0 Z " fill="#92D2A1" transform="translate(455,107)"/>
<path d="M0 0 C3.13362694 2.19530927 6.06801649 4.54697186 9 7 C9.99 7.66 10.98 8.32 12 9 C12 9.66 12 10.32 12 11 C6.23429185 11.12363784 0.46935578 11.21435706 -5.29736328 11.2746582 C-7.25876303 11.29979604 -9.22006916 11.33391165 -11.18115234 11.37719727 C-14.00121144 11.43788208 -16.82003194 11.46621641 -19.640625 11.48828125 C-20.51680481 11.51408768 -21.39298462 11.5398941 -22.29571533 11.56648254 C-28.42247604 11.56930237 -28.42247604 11.56930237 -31.45239258 8.58251953 C-31.96310303 7.73028809 -32.47381348 6.87805664 -33 6 C-40.52112054 -0.41303648 -49.65995968 -4.88665323 -59 -8 C-59 -8.66 -59 -9.32 -59 -10 C-39.61603616 -15.63427972 -16.84065231 -10.05412078 0 0 Z " fill="#92D2A1" transform="translate(313,117)"/>
<path d="M0 0 C6.82185442 1.61365235 13.86074955 2.36681135 20.8046875 3.2890625 C21.76608643 3.41740479 22.72748535 3.54574707 23.71801758 3.67797852 C25.6248923 3.93107251 27.53226583 4.18044499 29.44018555 4.42553711 C33.81351599 5.00375412 38.17049043 5.64365496 42.50390625 6.47265625 C43.23061523 6.60994141 43.95732422 6.74722656 44.70605469 6.88867188 C45.26325195 7.11232422 45.82044922 7.33597656 46.39453125 7.56640625 C46.88953125 9.05140625 46.88953125 9.05140625 47.39453125 10.56640625 C41.92004573 10.16402627 36.57932297 9.65511162 31.20703125 8.50390625 C29.27268249 8.17245885 27.3347674 7.86144216 25.39453125 7.56640625 C23.7084375 7.27636719 23.7084375 7.27636719 21.98828125 6.98046875 C8.84841067 5.75878657 -0.80432176 12.26840181 -11.74804688 18.91894531 C-15.28217309 20.95656353 -18.95669514 22.74201944 -22.60546875 24.56640625 C-25.24546875 18.62640625 -27.88546875 12.68640625 -30.60546875 6.56640625 C-20.4843149 -1.53051683 -12.67084113 -3.17325794 0 0 Z " fill="#FBAE9C" transform="translate(185.60546875,384.43359375)"/>
<path d="M0 0 C7.04936419 2.78770311 12.14012079 10.96732217 15.625 17.4375 C17.24095772 21.62429954 17.24095772 21.62429954 16 25 C13.99359359 28.58432289 11.76435822 31.47539951 7.73046875 32.67480469 C5.11973582 32.94307291 2.62259396 32.95599187 0 32.875 C-1.31484375 32.91560547 -1.31484375 32.91560547 -2.65625 32.95703125 C-6.33770834 32.9182207 -8.96254435 32.75068342 -11.99609375 30.55566406 C-14.5244517 27.8681889 -15.98691032 26.10771408 -16.03125 22.35546875 C-12.21050459 13.62853888 -6.55137982 6.84255226 0 0 Z " fill="#74BC9F" transform="translate(355,96)"/>
<path d="M0 0 C0.66 0.33 1.32 0.66 2 1 C1.30156479 1.60050926 1.30156479 1.60050926 0.58901978 2.21315002 C-1.29469308 4.33138186 -1.74010523 5.84897631 -2.42431641 8.58959961 C-2.79512833 10.02729454 -2.79512833 10.02729454 -3.1734314 11.49403381 C-3.43846466 12.55690109 -3.70349792 13.61976837 -3.9765625 14.71484375 C-4.59201449 17.08925318 -5.21106541 19.4627316 -5.83300781 21.83544922 C-6.08440427 22.79728984 -6.08440427 22.79728984 -6.34087944 23.77856159 C-8.34783041 31.40829697 -10.5422843 38.98357321 -12.73589325 46.56132889 C-13.46412527 49.0774202 -14.18995452 51.5941931 -14.9151001 54.11117554 C-16.9079115 61.02611786 -18.90353095 67.9402289 -20.90966797 74.85131836 C-22.15598919 79.14590539 -23.39511704 83.44251308 -24.62968826 87.74049187 C-25.09505291 89.35545844 -25.56306588 90.96966458 -26.03391647 92.58304024 C-31.20838431 108.81221894 -31.20838431 108.81221894 -28 125 C-24.94324189 130.29054288 -20.48997652 131.90020129 -15 134 C-16.77859551 137.79646397 -18.3204388 139.80792099 -22 142 C-25.83843259 142.7719357 -29.35418547 142.91356654 -32.84375 140.9765625 C-35.79482412 138.58966431 -38.709991 135.95886321 -39.28540039 132.07226562 C-39.28473459 126.16524296 -38.1927026 121.11894199 -36.4375 115.5 C-35.88566286 113.65526345 -35.33493041 111.81019617 -34.78515625 109.96484375 C-34.49398926 108.9991748 -34.20282227 108.03350586 -33.90283203 107.03857422 C-32.32618151 101.73219445 -30.85625356 96.39613467 -29.375 91.0625 C-27.30274747 83.64003784 -25.21262955 76.22347471 -23.0859375 68.81640625 C-21.58125684 63.52837386 -20.10447507 58.23263065 -18.625 52.9375 C-15.66781834 42.36357534 -12.69974367 31.79335032 -9.64355469 21.24755859 C-9.05031396 19.17571713 -8.47890028 17.09925759 -7.9140625 15.01953125 C-6.1757761 8.86599738 -4.62556884 4.49708082 0 0 Z " fill="#EFC863" transform="translate(93,116)"/>
<path d="M0 0 C1.36691554 2.73383109 0.65518553 3.87238376 -0.1875 6.78515625 C-0.61180298 8.27366089 -0.61180298 8.27366089 -1.04467773 9.79223633 C-1.35993408 10.87142334 -1.67519043 11.95061035 -2 13.0625 C-2.65776526 15.35931396 -3.31531149 17.65619066 -3.97265625 19.953125 C-4.31184082 21.12939453 -4.65102539 22.30566406 -5.00048828 23.51757812 C-6.50925098 28.77429312 -7.9714431 34.04375221 -9.4375 39.3125 C-12.25317612 49.38744041 -15.12191137 59.44678606 -18.00390625 69.50292969 C-20.65068704 78.74856921 -23.25294177 88.00619984 -25.83007812 97.27148438 C-26.10142578 98.24537109 -26.37277344 99.21925781 -26.65234375 100.22265625 C-26.88945068 101.07609619 -27.12655762 101.92953613 -27.37084961 102.80883789 C-27.87136639 104.55200364 -28.42648942 106.27946825 -29 108 C-29.7469835 114.60546842 -29.5197318 119.79508773 -25.5625 125.28125 C-22.05541794 129.13904027 -17.76114161 131.90509769 -13 134 C-15.65350773 137.73456644 -17.50848985 139.85100903 -22 141 C-25.54860798 141.5257197 -27.89251308 141.71635067 -30.96875 139.7265625 C-36.80797114 134.82065949 -36.80797114 134.82065949 -37.20751953 131.0324707 C-37.35439932 123.9672675 -35.91078585 117.91974977 -33.875 111.1875 C-33.55805176 110.09945068 -33.24110352 109.01140137 -32.91455078 107.89038086 C-32.26470349 105.66138193 -31.60961378 103.43390451 -30.94921875 101.20800781 C-29.55691232 96.50252773 -28.21718065 91.78246509 -26.875 87.0625 C-26.38162781 85.33981012 -25.88814039 83.61715324 -25.39453125 81.89453125 C-23.68110719 75.89695985 -22.01543188 69.88646296 -20.3515625 63.875 C-17.84695403 54.82952481 -15.31160984 45.79258985 -12.77392578 36.75634766 C-12.30811292 35.09734854 -11.8427883 33.43821207 -11.37841797 31.77880859 C-10.27689913 27.84509806 -9.15114159 23.91947399 -8 20 C-7.80164551 19.32050293 -7.60329102 18.64100586 -7.39892578 17.94091797 C-6.75483389 15.74925026 -6.09789946 13.56180372 -5.4375 11.375 C-5.23946777 10.69880615 -5.04143555 10.0226123 -4.83740234 9.32592773 C-3.72303206 5.69341188 -2.51308966 2.87002123 0 0 Z " fill="#F6E499" transform="translate(130,128)"/>
<path d="M0 0 C3.96 0 7.92 0 12 0 C12 0.33 12 0.66 12 1 C8.37 1 4.74 1 1 1 C0.34 2.65 -0.32 4.3 -1 6 C-4.73252868 11.77624111 -9.70517812 15.36487148 -16 18 C-19.26150458 18.69876677 -22.36078807 18.71114211 -25.6875 18.625 C-26.65921143 18.61098145 -27.63092285 18.59696289 -28.63208008 18.58251953 C-39.45756091 18.26108934 -50.25884771 17.24254 -61.03311157 16.18328857 C-63.13145961 15.97821024 -65.23058667 15.7809483 -67.33041382 15.59161377 C-70.3216198 15.31607179 -73.30662519 15.00329353 -76.29296875 14.6796875 C-77.19728638 14.60123596 -78.101604 14.52278442 -79.0333252 14.44195557 C-83.40369004 13.92614445 -86.14799599 13.42671767 -89.10668945 10.02001953 C-91 7 -91 7 -91 5 C-85.39553226 5.45469952 -79.79144583 5.91391585 -74.1875 6.375 C-72.94592133 6.47671005 -72.94592133 6.47671005 -71.67926025 6.58047485 C-62.56137939 7.32936515 -53.4619679 8.11950775 -44.375 9.1875 C-23.15692788 11.6172622 -23.15692788 11.6172622 -3.9375 3.75 C-2.9784375 2.88375 -2.9784375 2.88375 -2 2 C-1.34 2 -0.68 2 0 2 C0 1.34 0 0.68 0 0 Z " fill="#F8AB9A" transform="translate(345,336)"/>
<path d="M0 0 C3.4585388 -0.05375967 6.91624908 -0.09355681 10.375 -0.125 C11.35984375 -0.14175781 12.3446875 -0.15851563 13.359375 -0.17578125 C14.77089844 -0.18544922 14.77089844 -0.18544922 16.2109375 -0.1953125 C17.51490479 -0.21102295 17.51490479 -0.21102295 18.84521484 -0.22705078 C21 0 21 0 23 2 C23.30078125 4.96875 23.30078125 4.96875 23.3125 8.5 C23.32925781 9.6653125 23.34601563 10.830625 23.36328125 12.03125 C23.24339844 13.0109375 23.12351562 13.990625 23 15 C19.79593538 17.13604308 19.00399253 17.24208908 15.33203125 17.1953125 C14.43935547 17.18886719 13.54667969 17.18242187 12.62695312 17.17578125 C11.23379883 17.15064453 11.23379883 17.15064453 9.8125 17.125 C8.87212891 17.11597656 7.93175781 17.10695312 6.96289062 17.09765625 C4.64181843 17.07409207 2.32087711 17.03822121 0 17 C0 11.39 0 5.78 0 0 Z " fill="#FAC1A9" transform="translate(409,143)"/>
<path d="M0 0 C16.67107778 2.27951472 31.36471975 8.87060045 44 20 C44 20.66 44 21.32 44 22 C30.47 22 16.94 22 3 22 C3 21.67 3 21.34 3 21 C12.9 20.505 12.9 20.505 23 20 C16.82474815 13.4198136 10.74747377 8.58498038 3 4 C2.01 3.34 1.02 2.68 0 2 C0 1.34 0 0.68 0 0 Z " fill="#72B79A" transform="translate(281,106)"/>
<path d="M0 0 C1.36691554 2.73383109 0.65518553 3.87238376 -0.1875 6.78515625 C-0.47036865 7.77749268 -0.7532373 8.7698291 -1.04467773 9.79223633 C-1.35993408 10.87142334 -1.67519043 11.95061035 -2 13.0625 C-2.65776526 15.35931396 -3.31531149 17.65619066 -3.97265625 19.953125 C-4.48143311 21.7175293 -4.48143311 21.7175293 -5.00048828 23.51757812 C-6.50925098 28.77429312 -7.9714431 34.04375221 -9.4375 39.3125 C-12.25317612 49.38744041 -15.12191137 59.44678606 -18.00390625 69.50292969 C-20.65068704 78.74856921 -23.25294177 88.00619984 -25.83007812 97.27148438 C-26.10142578 98.24537109 -26.37277344 99.21925781 -26.65234375 100.22265625 C-26.88945068 101.07609619 -27.12655762 101.92953613 -27.37084961 102.80883789 C-27.87136639 104.55200364 -28.42648942 106.27946825 -29 108 C-30.485 108.495 -30.485 108.495 -32 109 C-31.34458249 104.6940168 -30.42000134 100.55006587 -29.29296875 96.34375 C-28.95330078 95.07273437 -28.61363281 93.80171875 -28.26367188 92.4921875 C-28.08634521 91.83444336 -27.90901855 91.17669922 -27.72631836 90.49902344 C-27.19666551 88.53400417 -26.6711892 86.56790806 -26.14648438 84.6015625 C-24.15616322 77.16488946 -22.09014003 69.75210375 -19.9621582 62.35351562 C-18.44811618 57.07645871 -16.97574241 51.78786817 -15.5 46.5 C-14.59713677 43.27347209 -13.69366926 40.04711396 -12.79003906 36.82080078 C-12.31770948 35.13436816 -11.84561987 33.44786826 -11.37402344 31.76123047 C-10.27402424 27.83337491 -9.14943697 23.91366999 -8 20 C-7.80164551 19.32050293 -7.60329102 18.64100586 -7.39892578 17.94091797 C-6.75483389 15.74925026 -6.09789946 13.56180372 -5.4375 11.375 C-5.23946777 10.69880615 -5.04143555 10.0226123 -4.83740234 9.32592773 C-3.72303206 5.69341188 -2.51308966 2.87002123 0 0 Z " fill="#EAD992" transform="translate(130,128)"/>
<path d="M0 0 C-2.96262352 2.24254141 -5.96430368 4.41992775 -9 6.5625 C-9.845625 7.16191406 -10.69125 7.76132813 -11.5625 8.37890625 C-14 10 -14 10 -16.1875 10.96484375 C-18.49165998 12.05849775 -18.49165998 12.05849775 -20 16 C-33.53 16 -47.06 16 -61 16 C-60.67 15.34 -60.34 14.68 -60 14 C-59.38068604 14.0314209 -58.76137207 14.0628418 -58.12329102 14.09521484 C-55.27007782 14.22126788 -52.41745175 14.29838149 -49.5625 14.375 C-48.58861328 14.42527344 -47.61472656 14.47554687 -46.61132812 14.52734375 C-38.96953248 14.68069082 -34.91570776 12.6666345 -29 8 C-20.99978176 2.9806962 -9.44690742 -0.51361827 0 0 Z " fill="#6FB396" transform="translate(446,112)"/>
<path d="M0 0 C4.875 4.625 4.875 4.625 6 8 C2.9398596 8.53537872 -0.12333716 9.0506887 -3.1875 9.5625 C-4.48397461 9.78969727 -4.48397461 9.78969727 -5.80664062 10.02148438 C-14.54145867 11.46055402 -14.54145867 11.46055402 -18 10 C-20.3125 7.4375 -20.3125 7.4375 -22 5 C-19.64741656 4.49133331 -17.29338596 3.9929375 -14.9375 3.5 C-13.95233398 3.28537109 -13.95233398 3.28537109 -12.94726562 3.06640625 C-8.56860012 2.16047545 -4.49581296 1.85968854 0 2 C0 1.34 0 0.68 0 0 Z " fill="#F6AA99" transform="translate(227,275)"/>
<path d="M0 0 C2.85288164 5.73230171 4.53444296 10.59859065 5 17 C1.67248867 17.39930136 -0.9193659 17.68286878 -3.8359375 15.83984375 C-5.49912348 14.3133045 -6.804458 12.91558434 -8 11 C-8 8.375 -8 8.375 -7 6 C-6.71125 5.278125 -6.4225 4.55625 -6.125 3.8125 C-4.56711362 1.30257195 -3.02490628 0 0 0 Z " fill="#90D0A0" transform="translate(347,110)"/>
<path d="M0 0 C6.01978696 -0.19110435 12.33657477 -0.36397437 18 2 C18.33 2.99 18.66 3.98 19 5 C12.4491015 4.54240047 6.3246158 3.7899856 0 2 C0 1.34 0 0.68 0 0 Z " fill="#E7A090" transform="translate(214,390)"/>
<path d="M0 0 C1.30710937 0.09925781 2.61421875 0.19851563 3.9609375 0.30078125 C6.91567805 0.61263553 9.73104957 1.0338471 12.625 1.6875 C12.295 2.3475 11.965 3.0075 11.625 3.6875 C8.8955414 3.54606168 6.16651877 3.39950471 3.4375 3.25 C2.66857422 3.21068359 1.89964844 3.17136719 1.10742188 3.13085938 C-2.80751075 2.91242966 -6.54620688 2.60057892 -10.375 1.6875 C-6.50674801 -0.89133466 -4.58300466 -0.37366344 0 0 Z " fill="#FEB1A0" transform="translate(258.375,396.3125)"/>
<path d="M0 0 C2.64 0.33 5.28 0.66 8 1 C8 1.66 8 2.32 8 3 C5.69 3.66 3.38 4.32 1 5 C0.67 3.35 0.34 1.7 0 0 Z " fill="#72B89B" transform="translate(447,106)"/>
<path d="M0 0 C0.33 0.99 0.66 1.98 1 3 C-2.3 2.67 -5.6 2.34 -9 2 C-5.5647952 -0.29013653 -4.014669 -0.17842973 0 0 Z " fill="#D99687" transform="translate(257,396)"/>
<path d="M0 0 C0.33 0.99 0.66 1.98 1 3 C-1.97 2.67 -4.94 2.34 -8 2 C-4.77208445 -0.1519437 -3.71599191 -0.20086443 0 0 Z " fill="#E49D8D" transform="translate(244,394)"/>
</svg>
